<mxfile host="app.diagrams.net" modified="2021-04-04T07:47:33.548Z" agent="5.0 (Macintosh; Intel Mac OS X 10_15_7) AppleWebKit/537.36 (KHTML, like Gecko) Chrome/89.0.4389.114 Safari/537.36" etag="BhM7YwRwLiZXCIssqYRi" version="14.5.3" type="github">
  <diagram id="n86EKAJTnbwMGECXzbh1" name="Page-1">
    <mxGraphModel dx="1255" dy="786" grid="1" gridSize="10" guides="1" tooltips="1" connect="1" arrows="1" fold="1" page="1" pageScale="1" pageWidth="827" pageHeight="1169" math="0" shadow="0">
      <root>
        <mxCell id="0" />
        <mxCell id="1" parent="0" />
        <mxCell id="kA-8osTZPoCyGlQMSd1O-5" value="And" style="ellipse;whiteSpace=wrap;html=1;aspect=fixed;dashed=1;" parent="1" vertex="1">
          <mxGeometry x="690" y="220" width="40" height="40" as="geometry" />
        </mxCell>
        <mxCell id="kA-8osTZPoCyGlQMSd1O-6" value="&amp;gt;" style="ellipse;whiteSpace=wrap;html=1;aspect=fixed;dashed=1;" parent="1" vertex="1">
          <mxGeometry x="610" y="335" width="40" height="40" as="geometry" />
        </mxCell>
        <mxCell id="kA-8osTZPoCyGlQMSd1O-7" value="!=" style="ellipse;whiteSpace=wrap;html=1;aspect=fixed;dashed=1;" parent="1" vertex="1">
          <mxGeometry x="787" y="330" width="40" height="40" as="geometry" />
        </mxCell>
        <mxCell id="kA-8osTZPoCyGlQMSd1O-8" value="@@redis_query(age)" style="ellipse;whiteSpace=wrap;html=1;aspect=fixed;dashed=1;" parent="1" vertex="1">
          <mxGeometry x="570" y="440" width="40" height="40" as="geometry" />
        </mxCell>
        <mxCell id="kA-8osTZPoCyGlQMSd1O-9" value="10" style="ellipse;whiteSpace=wrap;html=1;aspect=fixed;dashed=1;" parent="1" vertex="1">
          <mxGeometry x="660" y="440" width="40" height="40" as="geometry" />
        </mxCell>
        <mxCell id="kA-8osTZPoCyGlQMSd1O-10" value="**user_city" style="ellipse;whiteSpace=wrap;html=1;aspect=fixed;dashed=1;" parent="1" vertex="1">
          <mxGeometry x="750" y="440" width="40" height="40" as="geometry" />
        </mxCell>
        <mxCell id="kA-8osTZPoCyGlQMSd1O-11" value="&#39;深圳&#39;" style="ellipse;whiteSpace=wrap;html=1;aspect=fixed;dashed=1;" parent="1" vertex="1">
          <mxGeometry x="860" y="440" width="40" height="40" as="geometry" />
        </mxCell>
        <mxCell id="kA-8osTZPoCyGlQMSd1O-12" value="" style="endArrow=classic;html=1;exitX=0.5;exitY=1;exitDx=0;exitDy=0;entryX=0.5;entryY=0;entryDx=0;entryDy=0;dashed=1;" parent="1" source="kA-8osTZPoCyGlQMSd1O-6" target="kA-8osTZPoCyGlQMSd1O-8" edge="1">
          <mxGeometry width="50" height="50" relative="1" as="geometry">
            <mxPoint x="350" y="460" as="sourcePoint" />
            <mxPoint x="400" y="410" as="targetPoint" />
          </mxGeometry>
        </mxCell>
        <mxCell id="kA-8osTZPoCyGlQMSd1O-13" value="" style="endArrow=classic;html=1;exitX=0.5;exitY=1;exitDx=0;exitDy=0;entryX=0.5;entryY=0;entryDx=0;entryDy=0;dashed=1;" parent="1" source="kA-8osTZPoCyGlQMSd1O-6" target="kA-8osTZPoCyGlQMSd1O-9" edge="1">
          <mxGeometry width="50" height="50" relative="1" as="geometry">
            <mxPoint x="630" y="385" as="sourcePoint" />
            <mxPoint x="600" y="450" as="targetPoint" />
          </mxGeometry>
        </mxCell>
        <mxCell id="kA-8osTZPoCyGlQMSd1O-14" value="" style="endArrow=classic;html=1;exitX=0.5;exitY=1;exitDx=0;exitDy=0;entryX=0.5;entryY=0;entryDx=0;entryDy=0;dashed=1;" parent="1" source="kA-8osTZPoCyGlQMSd1O-7" target="kA-8osTZPoCyGlQMSd1O-11" edge="1">
          <mxGeometry width="50" height="50" relative="1" as="geometry">
            <mxPoint x="850" y="375" as="sourcePoint" />
            <mxPoint x="900" y="440" as="targetPoint" />
          </mxGeometry>
        </mxCell>
        <mxCell id="kA-8osTZPoCyGlQMSd1O-15" value="" style="endArrow=classic;html=1;exitX=0.5;exitY=1;exitDx=0;exitDy=0;entryX=0.5;entryY=0;entryDx=0;entryDy=0;dashed=1;" parent="1" source="kA-8osTZPoCyGlQMSd1O-7" target="kA-8osTZPoCyGlQMSd1O-10" edge="1">
          <mxGeometry width="50" height="50" relative="1" as="geometry">
            <mxPoint x="830" y="375" as="sourcePoint" />
            <mxPoint x="890" y="450" as="targetPoint" />
          </mxGeometry>
        </mxCell>
        <mxCell id="kA-8osTZPoCyGlQMSd1O-16" value="" style="endArrow=classic;html=1;exitX=0;exitY=0.85;exitDx=0;exitDy=0;entryX=0.5;entryY=0;entryDx=0;entryDy=0;exitPerimeter=0;dashed=1;" parent="1" source="kA-8osTZPoCyGlQMSd1O-5" target="kA-8osTZPoCyGlQMSd1O-6" edge="1">
          <mxGeometry width="50" height="50" relative="1" as="geometry">
            <mxPoint x="680" y="260" as="sourcePoint" />
            <mxPoint x="640" y="325" as="targetPoint" />
          </mxGeometry>
        </mxCell>
        <mxCell id="kA-8osTZPoCyGlQMSd1O-17" value="" style="endArrow=classic;html=1;exitX=1;exitY=1;exitDx=0;exitDy=0;entryX=0;entryY=0;entryDx=0;entryDy=0;dashed=1;" parent="1" source="kA-8osTZPoCyGlQMSd1O-5" target="kA-8osTZPoCyGlQMSd1O-7" edge="1">
          <mxGeometry width="50" height="50" relative="1" as="geometry">
            <mxPoint x="700" y="264" as="sourcePoint" />
            <mxPoint x="640" y="345" as="targetPoint" />
          </mxGeometry>
        </mxCell>
        <mxCell id="kA-8osTZPoCyGlQMSd1O-18" value="" style="shape=flexArrow;endArrow=classic;html=1;dashed=1;" parent="1" edge="1">
          <mxGeometry width="50" height="50" relative="1" as="geometry">
            <mxPoint x="220" y="279.5" as="sourcePoint" />
            <mxPoint x="400" y="280" as="targetPoint" />
          </mxGeometry>
        </mxCell>
        <mxCell id="kA-8osTZPoCyGlQMSd1O-30" value="Lexical Analyze" style="edgeLabel;html=1;align=center;verticalAlign=middle;resizable=0;points=[];" parent="kA-8osTZPoCyGlQMSd1O-18" vertex="1" connectable="0">
          <mxGeometry x="-0.2667" y="1" relative="1" as="geometry">
            <mxPoint as="offset" />
          </mxGeometry>
        </mxCell>
        <mxCell id="kA-8osTZPoCyGlQMSd1O-19" value="&lt;font color=&quot;#f19c99&quot; style=&quot;font-size: 14px;&quot;&gt;&lt;b style=&quot;font-size: 14px;&quot;&gt;Expression&lt;br style=&quot;font-size: 14px;&quot;&gt;Tree&lt;/b&gt;&lt;/font&gt;" style="text;html=1;strokeColor=none;fillColor=none;align=center;verticalAlign=middle;whiteSpace=wrap;rounded=0;fontSize=14;" parent="1" vertex="1">
          <mxGeometry x="523.5" y="80" width="133" height="50" as="geometry" />
        </mxCell>
        <mxCell id="kA-8osTZPoCyGlQMSd1O-21" value="&lt;span&gt;&lt;b&gt;&lt;font style=&quot;font-size: 8px&quot;&gt;@@redis_query(&#39;city&#39;)&amp;gt;10 and @@redis_query(&quot;age&quot;)&amp;gt;5 and **user_city!=&#39;深圳&#39;&lt;/font&gt;&lt;/b&gt;&lt;/span&gt;" style="rounded=0;whiteSpace=wrap;html=1;dashed=1;" parent="1" vertex="1">
          <mxGeometry x="40" y="250" width="120" height="60" as="geometry" />
        </mxCell>
        <mxCell id="kA-8osTZPoCyGlQMSd1O-22" value="And" style="ellipse;whiteSpace=wrap;html=1;aspect=fixed;dashed=1;" parent="1" vertex="1">
          <mxGeometry x="570" y="150" width="40" height="40" as="geometry" />
        </mxCell>
        <mxCell id="kA-8osTZPoCyGlQMSd1O-23" value="&amp;gt;" style="ellipse;whiteSpace=wrap;html=1;aspect=fixed;dashed=1;" parent="1" vertex="1">
          <mxGeometry x="480" y="230" width="40" height="40" as="geometry" />
        </mxCell>
        <mxCell id="kA-8osTZPoCyGlQMSd1O-24" value="@@redis_query(city)" style="ellipse;whiteSpace=wrap;html=1;aspect=fixed;dashed=1;" parent="1" vertex="1">
          <mxGeometry x="440" y="335" width="40" height="40" as="geometry" />
        </mxCell>
        <mxCell id="kA-8osTZPoCyGlQMSd1O-25" value="10" style="ellipse;whiteSpace=wrap;html=1;aspect=fixed;dashed=1;" parent="1" vertex="1">
          <mxGeometry x="530" y="335" width="40" height="40" as="geometry" />
        </mxCell>
        <mxCell id="kA-8osTZPoCyGlQMSd1O-26" value="" style="endArrow=classic;html=1;exitX=0.5;exitY=1;exitDx=0;exitDy=0;entryX=0.5;entryY=0;entryDx=0;entryDy=0;dashed=1;" parent="1" source="kA-8osTZPoCyGlQMSd1O-23" target="kA-8osTZPoCyGlQMSd1O-24" edge="1">
          <mxGeometry width="50" height="50" relative="1" as="geometry">
            <mxPoint x="220" y="355" as="sourcePoint" />
            <mxPoint x="270" y="305" as="targetPoint" />
          </mxGeometry>
        </mxCell>
        <mxCell id="kA-8osTZPoCyGlQMSd1O-27" value="" style="endArrow=classic;html=1;exitX=0.5;exitY=1;exitDx=0;exitDy=0;entryX=0.5;entryY=0;entryDx=0;entryDy=0;dashed=1;" parent="1" source="kA-8osTZPoCyGlQMSd1O-23" target="kA-8osTZPoCyGlQMSd1O-25" edge="1">
          <mxGeometry width="50" height="50" relative="1" as="geometry">
            <mxPoint x="500" y="280" as="sourcePoint" />
            <mxPoint x="470" y="345" as="targetPoint" />
          </mxGeometry>
        </mxCell>
        <mxCell id="kA-8osTZPoCyGlQMSd1O-28" value="" style="endArrow=classic;html=1;exitX=0;exitY=1;exitDx=0;exitDy=0;entryX=0.5;entryY=0;entryDx=0;entryDy=0;dashed=1;" parent="1" source="kA-8osTZPoCyGlQMSd1O-22" target="kA-8osTZPoCyGlQMSd1O-23" edge="1">
          <mxGeometry width="50" height="50" relative="1" as="geometry">
            <mxPoint x="510" y="280" as="sourcePoint" />
            <mxPoint x="560" y="345" as="targetPoint" />
          </mxGeometry>
        </mxCell>
        <mxCell id="kA-8osTZPoCyGlQMSd1O-29" value="" style="endArrow=classic;html=1;exitX=1;exitY=1;exitDx=0;exitDy=0;entryX=0;entryY=0;entryDx=0;entryDy=0;dashed=1;" parent="1" source="kA-8osTZPoCyGlQMSd1O-22" target="kA-8osTZPoCyGlQMSd1O-5" edge="1">
          <mxGeometry width="50" height="50" relative="1" as="geometry">
            <mxPoint x="585.8578643762689" y="194.14213562373106" as="sourcePoint" />
            <mxPoint x="510" y="240" as="targetPoint" />
          </mxGeometry>
        </mxCell>
        <mxCell id="kA-8osTZPoCyGlQMSd1O-32" value="&lt;font color=&quot;#f19c99&quot;&gt;&lt;b&gt;Raw&lt;/b&gt;&lt;/font&gt;" style="text;html=1;strokeColor=none;fillColor=none;align=center;verticalAlign=middle;whiteSpace=wrap;rounded=0;fontSize=14;" parent="1" vertex="1">
          <mxGeometry x="33.5" y="80" width="133" height="50" as="geometry" />
        </mxCell>
        <mxCell id="vTm4UyEwdp8ETNC_sISF-1" value="" style="shape=flexArrow;endArrow=classic;html=1;" edge="1" parent="1">
          <mxGeometry width="50" height="50" relative="1" as="geometry">
            <mxPoint x="910" y="300" as="sourcePoint" />
            <mxPoint x="1090" y="300.5" as="targetPoint" />
          </mxGeometry>
        </mxCell>
        <mxCell id="vTm4UyEwdp8ETNC_sISF-4" value="Optimize" style="edgeLabel;html=1;align=center;verticalAlign=middle;resizable=0;points=[];" vertex="1" connectable="0" parent="vTm4UyEwdp8ETNC_sISF-1">
          <mxGeometry x="-0.1778" relative="1" as="geometry">
            <mxPoint as="offset" />
          </mxGeometry>
        </mxCell>
        <mxCell id="vTm4UyEwdp8ETNC_sISF-5" value="And" style="ellipse;whiteSpace=wrap;html=1;aspect=fixed;" vertex="1" parent="1">
          <mxGeometry x="1400" y="240" width="40" height="40" as="geometry" />
        </mxCell>
        <mxCell id="vTm4UyEwdp8ETNC_sISF-6" value="&amp;gt;" style="ellipse;whiteSpace=wrap;html=1;aspect=fixed;" vertex="1" parent="1">
          <mxGeometry x="1320" y="355" width="40" height="40" as="geometry" />
        </mxCell>
        <mxCell id="vTm4UyEwdp8ETNC_sISF-7" value="!=" style="ellipse;whiteSpace=wrap;html=1;aspect=fixed;" vertex="1" parent="1">
          <mxGeometry x="1497" y="350" width="40" height="40" as="geometry" />
        </mxCell>
        <mxCell id="vTm4UyEwdp8ETNC_sISF-8" value="@@redis_query(age)" style="ellipse;whiteSpace=wrap;html=1;aspect=fixed;" vertex="1" parent="1">
          <mxGeometry x="1280" y="460" width="40" height="40" as="geometry" />
        </mxCell>
        <mxCell id="vTm4UyEwdp8ETNC_sISF-9" value="10" style="ellipse;whiteSpace=wrap;html=1;aspect=fixed;" vertex="1" parent="1">
          <mxGeometry x="1370" y="460" width="40" height="40" as="geometry" />
        </mxCell>
        <mxCell id="vTm4UyEwdp8ETNC_sISF-10" value="**user_city" style="ellipse;whiteSpace=wrap;html=1;aspect=fixed;" vertex="1" parent="1">
          <mxGeometry x="1460" y="460" width="40" height="40" as="geometry" />
        </mxCell>
        <mxCell id="vTm4UyEwdp8ETNC_sISF-11" value="&#39;深圳&#39;" style="ellipse;whiteSpace=wrap;html=1;aspect=fixed;" vertex="1" parent="1">
          <mxGeometry x="1570" y="460" width="40" height="40" as="geometry" />
        </mxCell>
        <mxCell id="vTm4UyEwdp8ETNC_sISF-12" value="" style="endArrow=classic;html=1;exitX=0.5;exitY=1;exitDx=0;exitDy=0;entryX=0.5;entryY=0;entryDx=0;entryDy=0;" edge="1" parent="1" source="vTm4UyEwdp8ETNC_sISF-6" target="vTm4UyEwdp8ETNC_sISF-8">
          <mxGeometry width="50" height="50" relative="1" as="geometry">
            <mxPoint x="1060" y="480" as="sourcePoint" />
            <mxPoint x="1110" y="430" as="targetPoint" />
          </mxGeometry>
        </mxCell>
        <mxCell id="vTm4UyEwdp8ETNC_sISF-13" value="" style="endArrow=classic;html=1;exitX=0.5;exitY=1;exitDx=0;exitDy=0;entryX=0.5;entryY=0;entryDx=0;entryDy=0;" edge="1" parent="1" source="vTm4UyEwdp8ETNC_sISF-6" target="vTm4UyEwdp8ETNC_sISF-9">
          <mxGeometry width="50" height="50" relative="1" as="geometry">
            <mxPoint x="1340" y="405" as="sourcePoint" />
            <mxPoint x="1310" y="470" as="targetPoint" />
          </mxGeometry>
        </mxCell>
        <mxCell id="vTm4UyEwdp8ETNC_sISF-14" value="" style="endArrow=classic;html=1;exitX=0.5;exitY=1;exitDx=0;exitDy=0;entryX=0.5;entryY=0;entryDx=0;entryDy=0;" edge="1" parent="1" source="vTm4UyEwdp8ETNC_sISF-7" target="vTm4UyEwdp8ETNC_sISF-11">
          <mxGeometry width="50" height="50" relative="1" as="geometry">
            <mxPoint x="1560" y="395" as="sourcePoint" />
            <mxPoint x="1610" y="460" as="targetPoint" />
          </mxGeometry>
        </mxCell>
        <mxCell id="vTm4UyEwdp8ETNC_sISF-15" value="" style="endArrow=classic;html=1;exitX=0.5;exitY=1;exitDx=0;exitDy=0;entryX=0.5;entryY=0;entryDx=0;entryDy=0;" edge="1" parent="1" source="vTm4UyEwdp8ETNC_sISF-7" target="vTm4UyEwdp8ETNC_sISF-10">
          <mxGeometry width="50" height="50" relative="1" as="geometry">
            <mxPoint x="1540" y="395" as="sourcePoint" />
            <mxPoint x="1600" y="470" as="targetPoint" />
          </mxGeometry>
        </mxCell>
        <mxCell id="vTm4UyEwdp8ETNC_sISF-16" value="" style="endArrow=classic;html=1;exitX=0;exitY=0.85;exitDx=0;exitDy=0;entryX=0.5;entryY=0;entryDx=0;entryDy=0;exitPerimeter=0;" edge="1" parent="1" source="vTm4UyEwdp8ETNC_sISF-5" target="vTm4UyEwdp8ETNC_sISF-6">
          <mxGeometry width="50" height="50" relative="1" as="geometry">
            <mxPoint x="1390" y="280" as="sourcePoint" />
            <mxPoint x="1350" y="345" as="targetPoint" />
          </mxGeometry>
        </mxCell>
        <mxCell id="vTm4UyEwdp8ETNC_sISF-17" value="" style="endArrow=classic;html=1;exitX=1;exitY=1;exitDx=0;exitDy=0;entryX=0;entryY=0;entryDx=0;entryDy=0;" edge="1" parent="1" source="vTm4UyEwdp8ETNC_sISF-5" target="vTm4UyEwdp8ETNC_sISF-7">
          <mxGeometry width="50" height="50" relative="1" as="geometry">
            <mxPoint x="1410" y="284" as="sourcePoint" />
            <mxPoint x="1350" y="365" as="targetPoint" />
          </mxGeometry>
        </mxCell>
        <mxCell id="vTm4UyEwdp8ETNC_sISF-18" value="&lt;font color=&quot;#f19c99&quot; style=&quot;font-size: 14px&quot;&gt;&lt;b style=&quot;font-size: 14px&quot;&gt;Optimized&lt;br&gt;Tree&lt;/b&gt;&lt;/font&gt;" style="text;html=1;strokeColor=none;fillColor=none;align=center;verticalAlign=middle;whiteSpace=wrap;rounded=0;fontSize=14;" vertex="1" parent="1">
          <mxGeometry x="1233.5" y="100" width="133" height="50" as="geometry" />
        </mxCell>
        <mxCell id="vTm4UyEwdp8ETNC_sISF-19" value="And" style="ellipse;whiteSpace=wrap;html=1;aspect=fixed;" vertex="1" parent="1">
          <mxGeometry x="1280" y="170" width="40" height="40" as="geometry" />
        </mxCell>
        <mxCell id="vTm4UyEwdp8ETNC_sISF-20" value="&amp;gt;" style="ellipse;whiteSpace=wrap;html=1;aspect=fixed;" vertex="1" parent="1">
          <mxGeometry x="1190" y="250" width="40" height="40" as="geometry" />
        </mxCell>
        <mxCell id="vTm4UyEwdp8ETNC_sISF-21" value="@@redis_query(city)" style="ellipse;whiteSpace=wrap;html=1;aspect=fixed;" vertex="1" parent="1">
          <mxGeometry x="1150" y="355" width="40" height="40" as="geometry" />
        </mxCell>
        <mxCell id="vTm4UyEwdp8ETNC_sISF-22" value="10" style="ellipse;whiteSpace=wrap;html=1;aspect=fixed;" vertex="1" parent="1">
          <mxGeometry x="1240" y="355" width="40" height="40" as="geometry" />
        </mxCell>
        <mxCell id="vTm4UyEwdp8ETNC_sISF-23" value="" style="endArrow=classic;html=1;exitX=0.5;exitY=1;exitDx=0;exitDy=0;entryX=0.5;entryY=0;entryDx=0;entryDy=0;" edge="1" parent="1" source="vTm4UyEwdp8ETNC_sISF-20" target="vTm4UyEwdp8ETNC_sISF-21">
          <mxGeometry width="50" height="50" relative="1" as="geometry">
            <mxPoint x="930" y="375" as="sourcePoint" />
            <mxPoint x="980" y="325" as="targetPoint" />
          </mxGeometry>
        </mxCell>
        <mxCell id="vTm4UyEwdp8ETNC_sISF-24" value="" style="endArrow=classic;html=1;exitX=0.5;exitY=1;exitDx=0;exitDy=0;entryX=0.5;entryY=0;entryDx=0;entryDy=0;" edge="1" parent="1" source="vTm4UyEwdp8ETNC_sISF-20" target="vTm4UyEwdp8ETNC_sISF-22">
          <mxGeometry width="50" height="50" relative="1" as="geometry">
            <mxPoint x="1210" y="300" as="sourcePoint" />
            <mxPoint x="1180" y="365" as="targetPoint" />
          </mxGeometry>
        </mxCell>
        <mxCell id="vTm4UyEwdp8ETNC_sISF-25" value="" style="endArrow=classic;html=1;exitX=0;exitY=1;exitDx=0;exitDy=0;entryX=0.5;entryY=0;entryDx=0;entryDy=0;" edge="1" parent="1" source="vTm4UyEwdp8ETNC_sISF-19" target="vTm4UyEwdp8ETNC_sISF-20">
          <mxGeometry width="50" height="50" relative="1" as="geometry">
            <mxPoint x="1220" y="300" as="sourcePoint" />
            <mxPoint x="1270" y="365" as="targetPoint" />
          </mxGeometry>
        </mxCell>
        <mxCell id="vTm4UyEwdp8ETNC_sISF-26" value="" style="endArrow=classic;html=1;exitX=1;exitY=1;exitDx=0;exitDy=0;entryX=0;entryY=0;entryDx=0;entryDy=0;" edge="1" parent="1" source="vTm4UyEwdp8ETNC_sISF-19" target="vTm4UyEwdp8ETNC_sISF-5">
          <mxGeometry width="50" height="50" relative="1" as="geometry">
            <mxPoint x="1295.857864376269" y="214.14213562373106" as="sourcePoint" />
            <mxPoint x="1220" y="260" as="targetPoint" />
          </mxGeometry>
        </mxCell>
        <mxCell id="vTm4UyEwdp8ETNC_sISF-27" value="mget" style="ellipse;whiteSpace=wrap;html=1;aspect=fixed;" vertex="1" parent="1">
          <mxGeometry x="1180" y="580" width="40" height="40" as="geometry" />
        </mxCell>
        <mxCell id="vTm4UyEwdp8ETNC_sISF-28" value="" style="endArrow=classic;html=1;exitX=0.5;exitY=1;exitDx=0;exitDy=0;entryX=0.5;entryY=0;entryDx=0;entryDy=0;" edge="1" parent="1" source="vTm4UyEwdp8ETNC_sISF-21" target="vTm4UyEwdp8ETNC_sISF-27">
          <mxGeometry width="50" height="50" relative="1" as="geometry">
            <mxPoint x="817" y="380" as="sourcePoint" />
            <mxPoint x="890" y="450" as="targetPoint" />
          </mxGeometry>
        </mxCell>
        <mxCell id="vTm4UyEwdp8ETNC_sISF-29" value="" style="endArrow=classic;html=1;exitX=0.5;exitY=1;exitDx=0;exitDy=0;entryX=0.5;entryY=0;entryDx=0;entryDy=0;" edge="1" parent="1" source="vTm4UyEwdp8ETNC_sISF-8" target="vTm4UyEwdp8ETNC_sISF-27">
          <mxGeometry width="50" height="50" relative="1" as="geometry">
            <mxPoint x="1180" y="405" as="sourcePoint" />
            <mxPoint x="1210" y="590" as="targetPoint" />
          </mxGeometry>
        </mxCell>
      </root>
    </mxGraphModel>
  </diagram>
</mxfile>
